<?xml version="1.0" encoding="UTF-8"?>
<svg version="1.1" xmlns="http://www.w3.org/2000/svg" width="2560" height="1280">
<path d="M0 0 C844.8 0 1689.6 0 2560 0 C2560 422.4 2560 844.8 2560 1280 C1715.2 1280 870.4 1280 0 1280 C0 857.6 0 435.2 0 0 Z " fill="#0038A7" transform="translate(0,0)"/>
<path d="M0 0 C647.43908458 0 647.43908458 0 713.59033203 16.41162109 C716.15720905 17.0383864 718.73102443 17.62587423 721.30859375 18.20703125 C732.07362441 20.65220875 742.57735839 23.54567298 753.05126953 27.02783203 C755.8404056 27.94738327 758.63566645 28.84621281 761.43302917 29.7403717 C790.84341234 39.15977949 819.15660957 50.62309753 847 64 C847.8854248 64.42345703 848.77084961 64.84691406 849.68310547 65.28320312 C878.91587099 79.33988062 906.44939344 96.42304212 933 115 C934.21695557 115.85126465 934.21695557 115.85126465 935.45849609 116.71972656 C945.72891817 123.93975909 955.60039809 131.54346535 965.26025391 139.56005859 C967.70011101 141.5794632 970.16419564 143.56870961 972.625 145.5625 C989.79583955 159.66254857 1005.83643874 174.75371014 1021.5625 190.4375 C1022.40983704 191.28081879 1022.40983704 191.28081879 1023.27429199 192.14117432 C1029.40274403 198.2475559 1035.39189907 204.40564345 1041 211 C1042.45445517 212.60768373 1043.91220895 214.21239715 1045.375 215.8125 C1049.21806298 220.07610017 1052.89322734 224.44552273 1056.5 228.91015625 C1058.32003572 231.15960665 1060.15218882 233.39473792 1062 235.62109375 C1069.53891153 244.74013358 1076.59467066 254.12434483 1083.42675781 263.78271484 C1084.93732589 265.9116688 1086.46240515 268.02935757 1087.9921875 270.14453125 C1107.92767409 297.83490892 1124.7245933 327.5281893 1140 358 C1140.49483887 358.98564941 1140.98967773 359.97129883 1141.49951172 360.98681641 C1157.39393337 392.8676601 1170.28057669 426.72593428 1180 461 C1180.27763184 461.96131836 1180.55526367 462.92263672 1180.84130859 463.91308594 C1191.56772915 501.23883168 1198.32544638 539.154155 1202.25 577.75 C1202.33326538 578.56191803 1202.41653076 579.37383606 1202.50231934 580.21035767 C1204.57390932 600.68957134 1205.26233738 621.17222284 1205.3125 641.75 C1205.31545074 642.83307434 1205.31840149 643.91614868 1205.32144165 645.03204346 C1205.33171506 661.88012408 1204.60011106 678.5874103 1203.1875 695.375 C1203.10472809 696.3688269 1203.02195618 697.36265381 1202.93667603 698.38659668 C1201.23149828 718.39729166 1198.31432781 738.1796271 1194.75 757.9375 C1194.60037811 758.76873383 1194.45075623 759.59996765 1194.29660034 760.45639038 C1189.9597514 784.41455512 1184.43817384 807.8453687 1176.94580078 831.03393555 C1175.96663848 834.1046229 1175.03512235 837.18743182 1174.10546875 840.2734375 C1171.79871338 847.78643871 1169.18691701 855.17927039 1166.5 862.5625 C1166.24055603 863.27587524 1165.98111206 863.98925049 1165.71380615 864.72424316 C1156.66366061 889.51236856 1145.7567235 913.39481386 1134 937 C1133.53271484 937.94391602 1133.06542969 938.88783203 1132.58398438 939.86035156 C1102.85534018 999.55987335 1060.78359478 1053.49086348 1013.71142578 1100.41894531 C1011.60200343 1102.52293737 1009.49807561 1104.63232035 1007.39453125 1106.7421875 C1006.02636265 1108.10969622 1004.65788439 1109.4768952 1003.2890625 1110.84375 C1002.67431061 1111.46052612 1002.05955872 1112.07730225 1001.42617798 1112.71276855 C997.11185725 1117.00422818 992.61550507 1121.03590017 988 1125 C986.90588776 1125.95010384 985.81207274 1126.90055025 984.71875 1127.8515625 C969.96951433 1140.58984862 954.81215375 1152.60415073 939 1164 C938.26604004 1164.53012695 937.53208008 1165.06025391 936.77587891 1165.60644531 C914.0706542 1181.95994877 890.27750395 1196.40607713 865.609375 1209.59912109 C863.20057853 1210.89231665 860.80236022 1212.20302731 858.40625 1213.51953125 C817.96690901 1235.53950753 772.80041307 1252.44134927 728.09082031 1263.23681641 C725.19039473 1263.95298784 722.31024704 1264.71989887 719.4296875 1265.51171875 C706.60057847 1268.98714402 693.65186024 1271.4393744 680.5625 1273.6875 C679.72869812 1273.8321167 678.89489624 1273.9767334 678.03582764 1274.12573242 C455.29377337 1312.48208193 226.02042449 1280 0 1280 C0 857.6 0 435.2 0 0 Z " fill="#FCFEFE" transform="translate(0,0)"/>
<path d="M0 0 C447.15 0 894.3 0 1355 0 C1355 211.2 1355 422.4 1355 640 C719.75 640 84.5 640 -570 640 C-570 639.67 -570 639.34 -570 639 C-568.84443604 638.87322876 -568.84443604 638.87322876 -567.66552734 638.74389648 C-528.28496418 634.33459014 -488.35689284 627.72343569 -450.74658203 614.91943359 C-448.0629036 614.02105733 -445.36972188 613.15620551 -442.67268372 612.29888916 C-405.81944462 600.56986881 -369.9287087 585.61239494 -336 567 C-335.04802734 566.48211914 -334.09605469 565.96423828 -333.11523438 565.43066406 C-312.32109121 554.09381898 -292.33735571 541.67130256 -273 528 C-271.92588867 527.24468994 -271.92588867 527.24468994 -270.83007812 526.47412109 C-260.45164078 519.15835791 -250.46629677 511.48637035 -240.68798828 503.38818359 C-238.4636906 501.55894486 -236.20180063 499.7793598 -233.9375 498 C-229.77386884 494.67468384 -225.72070554 491.23128238 -221.6875 487.75 C-221.1195874 487.26144531 -220.5516748 486.77289062 -219.96655273 486.26953125 C-208.44028585 476.25749006 -197.50763641 465.67069925 -186.73193359 454.86230469 C-184.61018991 452.73515216 -182.48308509 450.61346439 -180.35546875 448.4921875 C-178.9788456 447.11490417 -177.60253234 445.73731101 -176.2265625 444.359375 C-175.29198715 443.427836 -175.29198715 443.427836 -174.33853149 442.47747803 C-170.02970867 438.14594932 -165.97952493 433.63450402 -162 429 C-161.04990561 427.90587955 -160.09946068 426.81206323 -159.1484375 425.71875 C-104.98726969 363.00073578 -64.441473 291.49681297 -36.33007812 213.67285156 C-35.50358497 211.39058962 -34.67021602 209.11079046 -33.82617188 206.83496094 C-31.84268621 201.48102711 -30.08814309 196.14306556 -28.625 190.625 C-28.20024203 189.0544104 -27.77441708 187.48410906 -27.34765625 185.9140625 C-27.01918701 184.70411621 -27.01918701 184.70411621 -26.68408203 183.46972656 C-26.00016937 181.00061148 -25.28533595 178.54276364 -24.55859375 176.0859375 C-14.1950993 141.00136815 -7.20943544 104.45211997 -4 68 C-3.93768188 67.29593018 -3.87536377 66.59186035 -3.81115723 65.86645508 C-3.30754305 60.14209159 -2.8348865 54.41552803 -2.375 48.6875 C-2.31219849 47.92098114 -2.24939697 47.15446228 -2.18469238 46.36471558 C-0.93550934 30.90825421 -0.535355 15.52529512 0 0 Z " fill="#CE1125" transform="translate(1205,640)"/>
<path d="M0 0 C1.02749359 0.06930725 1.02749359 0.06930725 2.07574463 0.14001465 C31.77223507 2.19579103 61.701687 7.2445681 90.59033203 14.41162109 C93.15720905 15.0383864 95.73102443 15.62587423 98.30859375 16.20703125 C109.07362441 18.65220875 119.57735839 21.54567298 130.05126953 25.02783203 C132.8404056 25.94738327 135.63566645 26.84621281 138.43302917 27.7403717 C167.84341234 37.15977949 196.15660957 48.62309753 224 62 C224.8854248 62.42345703 225.77084961 62.84691406 226.68310547 63.28320312 C255.91587099 77.33988062 283.44939344 94.42304212 310 113 C311.21695557 113.85126465 311.21695557 113.85126465 312.45849609 114.71972656 C322.72891817 121.93975909 332.60039809 129.54346535 342.26025391 137.56005859 C344.70011101 139.5794632 347.16419564 141.56870961 349.625 143.5625 C366.79583955 157.66254857 382.83643874 172.75371014 398.5625 188.4375 C399.40983704 189.28081879 399.40983704 189.28081879 400.27429199 190.14117432 C406.40274403 196.2475559 412.39189907 202.40564345 418 209 C419.45445517 210.60768373 420.91220895 212.21239715 422.375 213.8125 C426.21806298 218.07610017 429.89322734 222.44552273 433.5 226.91015625 C435.32003572 229.15960665 437.15218882 231.39473792 439 233.62109375 C446.53891153 242.74013358 453.59467066 252.12434483 460.42675781 261.78271484 C461.93732589 263.9116688 463.46240515 266.02935757 464.9921875 268.14453125 C484.92767409 295.83490892 501.7245933 325.5281893 517 356 C517.49483887 356.98564941 517.98967773 357.97129883 518.49951172 358.98681641 C534.39393337 390.8676601 547.28057669 424.72593428 557 459 C557.27763184 459.96131836 557.55526367 460.92263672 557.84130859 461.91308594 C568.56772915 499.23883168 575.32544638 537.154155 579.25 575.75 C579.33326538 576.56191803 579.41653076 577.37383606 579.50231934 578.21035767 C581.57390932 598.68957134 582.26233738 619.17222284 582.3125 639.75 C582.31545074 640.83307434 582.31840149 641.91614868 582.32144165 643.03204346 C582.33171506 659.88012408 581.60011106 676.5874103 580.1875 693.375 C580.06334213 694.86574036 580.06334213 694.86574036 579.93667603 696.38659668 C578.23149828 716.39729166 575.31432781 736.1796271 571.75 755.9375 C571.60037811 756.76873383 571.45075623 757.59996765 571.29660034 758.45639038 C566.9597514 782.41455512 561.43817384 805.8453687 553.94580078 829.03393555 C552.96663848 832.1046229 552.03512235 835.18743182 551.10546875 838.2734375 C548.79871338 845.78643871 546.18691701 853.17927039 543.5 860.5625 C543.24055603 861.27587524 542.98111206 861.98925049 542.71380615 862.72424316 C533.66366061 887.51236856 522.7567235 911.39481386 511 935 C510.53271484 935.94391602 510.06542969 936.88783203 509.58398438 937.86035156 C479.85534018 997.55987335 437.78359478 1051.49086348 390.71142578 1098.41894531 C388.60200343 1100.52293737 386.49807561 1102.63232035 384.39453125 1104.7421875 C383.02636265 1106.10969622 381.65788439 1107.4768952 380.2890625 1108.84375 C379.67431061 1109.46052612 379.05955872 1110.07730225 378.42617798 1110.71276855 C374.11185725 1115.00422818 369.61550507 1119.03590017 365 1123 C363.90588776 1123.95010384 362.81207274 1124.90055025 361.71875 1125.8515625 C346.96951433 1138.58984862 331.81215375 1150.60415073 316 1162 C315.26604004 1162.53012695 314.53208008 1163.06025391 313.77587891 1163.60644531 C291.0706542 1179.95994877 267.27750395 1194.40607713 242.609375 1207.59912109 C240.20057853 1208.89231665 237.80236022 1210.20302731 235.40625 1211.51953125 C194.96690901 1233.53950753 149.80041307 1250.44134927 105.09082031 1261.23681641 C102.19039473 1261.95298784 99.31024704 1262.71989887 96.4296875 1263.51171875 C83.60057847 1266.98714402 70.65186024 1269.4393744 57.5625 1271.6875 C56.72869812 1271.8321167 55.89489624 1271.9767334 55.03582764 1272.12573242 C31.28556676 1276.21554523 8.05699284 1278.47363744 -16.0654757 1278.40297651 C-19.58232718 1278.39518132 -23.09915973 1278.40247924 -26.61601257 1278.40713501 C-32.51643173 1278.41253874 -38.41673696 1278.40554726 -44.31713867 1278.39111328 C-51.05354998 1278.3748202 -57.78968818 1278.38007302 -64.52609283 1278.3965925 C-70.39707274 1278.41039125 -76.26797245 1278.41203851 -82.1389634 1278.40427649 C-85.60702878 1278.399696 -89.07496779 1278.39869728 -92.54302406 1278.40888596 C-120.23380438 1278.46460264 -146.88716213 1275.569191 -174 1270 C-174.99338379 1269.79616699 -175.98676758 1269.59233398 -177.01025391 1269.38232422 C-182.73287681 1268.19486319 -188.43978309 1266.94683886 -194.13867188 1265.65039062 C-196.05557184 1265.21467207 -197.97356247 1264.78372583 -199.89257812 1264.35742188 C-259.14170548 1251.15152855 -316.66891543 1227.65841147 -369 1197 C-370.56854775 1196.09294944 -372.1375377 1195.18666303 -373.70703125 1194.28125 C-382.63812731 1189.10508413 -391.36963391 1183.6623955 -400 1178 C-398 1177 -398 1177 -395.62573242 1177.65649414 C-394.64967041 1178.00832764 -393.6736084 1178.36016113 -392.66796875 1178.72265625 C-386.28233847 1180.93675971 -379.85536164 1182.75168945 -373.3125 1184.4375 C-371.57830811 1184.8864563 -371.57830811 1184.8864563 -369.80908203 1185.34448242 C-358.82132337 1188.13657624 -347.75022067 1190.37413321 -336.61474609 1192.48461914 C-334.18945115 1192.96265813 -331.78372811 1193.49216139 -329.375 1194.046875 C-324.8198818 1195.07540102 -320.24850033 1195.79261354 -315.625 1196.4375 C-314.73723877 1196.56237793 -313.84947754 1196.68725586 -312.93481445 1196.81591797 C-305.36450605 1197.8566486 -297.78025159 1198.76472963 -290.1875 1199.625 C-288.58092529 1199.80953735 -288.58092529 1199.80953735 -286.94189453 1199.99780273 C-268.47985701 1202.03151813 -250.12197991 1202.24076235 -231.5625 1202.25 C-230.88493778 1202.25073643 -230.20737556 1202.25147285 -229.50928116 1202.2522316 C-209.63844581 1202.26981215 -189.9895308 1201.91277885 -170.24755859 1199.41015625 C-167.12244302 1199.01546416 -163.99597092 1198.67217306 -160.86328125 1198.34375 C-132.65974954 1195.26767798 -104.19194893 1189.92614518 -77.05615234 1181.61914062 C-74.4603123 1180.83749133 -71.84953482 1180.11097794 -69.23950195 1179.37841797 C-35.13260906 1169.67664134 -2.64607015 1155.8620441 29 1140 C29.89364258 1139.55446777 30.78728516 1139.10893555 31.70800781 1138.64990234 C51.23284895 1128.85642835 70.07060158 1117.47157779 88 1105 C88.6796582 1104.52997559 89.35931641 1104.05995117 90.05957031 1103.57568359 C120.45336243 1082.51644277 148.3826198 1058.64133673 174.5625 1032.5625 C175.39539551 1031.73427734 176.22829102 1030.90605469 177.08642578 1030.05273438 C181.93108373 1025.19535565 186.52952082 1020.20136358 191 1015 C192.45445517 1013.39231627 193.91220895 1011.78760285 195.375 1010.1875 C259.39626091 939.06472107 304.81451609 847.05143802 326 741 C326.18159668 740.04561035 326.36319336 739.0912207 326.55029297 738.10791016 C329.38115469 723.21578422 331.40363163 708.26914819 332.79815674 693.1739502 C332.94459776 691.59670909 333.09516052 690.01984893 333.24822998 688.4432373 C334.92325685 670.95223027 335.40059247 653.5656434 335.375 636 C335.3749081 635.32873833 335.37481621 634.65747665 335.37472153 633.96587372 C335.37065246 610.86940582 334.4015167 588.07507904 331.29425049 565.17108154 C331.00518834 563.03828139 330.7261032 560.90436765 330.44873047 558.77001953 C326.68866289 530.21975859 320.76964329 501.44937677 312 474 C311.80255188 473.37798706 311.60510376 472.75597412 311.40167236 472.1151123 C295.34564323 421.57677033 273.97033614 373.48851936 245 329 C244.59346191 328.37013184 244.18692383 327.74026367 243.76806641 327.09130859 C241.56847125 323.68714913 239.30504254 320.33351553 237 317 C236.58250488 316.39236816 236.16500977 315.78473633 235.73486328 315.15869141 C225.411707 300.16994813 214.38597592 285.75757658 202.51953125 271.95703125 C200.08185308 269.09606633 197.72434613 266.18363946 195.375 263.25 C191.93058122 259.01213475 188.28232378 255.13578461 184.3359375 251.36328125 C182.37006503 249.37439689 180.54773087 247.3497261 178.72265625 245.234375 C175.00888094 240.95388076 171.0800252 236.93178012 167.0625 232.9375 C166.39798828 232.26912109 165.73347656 231.60074219 165.04882812 230.91210938 C161.11369454 226.98460941 157.06883112 223.24610994 152.85961914 219.61450195 C150.24451436 217.34409524 147.72165311 214.98548388 145.1875 212.625 C139.6433473 207.50994773 133.89020796 202.71372462 128 198 C126.86916043 197.07759625 125.73898485 196.15437804 124.609375 195.23046875 C90.59897887 167.5395719 52.61659922 143.64922311 12.80126953 125.29541016 C10.08722925 124.04033802 7.38484095 122.76279818 4.68359375 121.48046875 C-10.2236932 114.47247586 -25.53957891 108.65566666 -41 103 C-42.53406494 102.43104004 -42.53406494 102.43104004 -44.09912109 101.85058594 C-58.39416306 96.56393672 -72.8417929 92.4490534 -87.64208984 88.82470703 C-90.90753193 88.02271028 -94.16681683 87.19896576 -97.42578125 86.37109375 C-110.60074605 83.06688001 -123.78534844 80.49476591 -137.20996094 78.4375 C-140.12552569 77.98031659 -143.03280168 77.48380369 -145.94140625 76.984375 C-151.98443709 75.97322549 -158.03869048 75.19842896 -164.125 74.5 C-165.09308594 74.38269531 -166.06117188 74.26539062 -167.05859375 74.14453125 C-188.00828442 71.71822835 -208.91576002 70.6187355 -230 70.6875 C-231.14576508 70.68899048 -232.29153015 70.69048096 -233.47201538 70.6920166 C-251.5007509 70.73389556 -269.26778016 71.44305517 -287.17285156 73.55126953 C-291.04709474 74.00552183 -294.92442756 74.40934026 -298.8046875 74.80859375 C-313.82992189 76.43604024 -328.57257972 78.9091461 -343.375 81.9375 C-344.17731049 82.10067719 -344.97962097 82.26385437 -345.8062439 82.43197632 C-355.44906612 84.41045871 -364.94042175 86.68605264 -374.37216187 89.5165863 C-379.7904577 91.10477115 -379.7904577 91.10477115 -382 90 C-343.80926515 67.01291367 -304.05681387 47.81984545 -262 33 C-260.8877002 32.60683594 -259.77540039 32.21367188 -258.62939453 31.80859375 C-241.95998989 25.96357178 -225.15546137 21.18830259 -208 17 C-206.218685 16.55625043 -204.43743084 16.11225651 -202.65625 15.66796875 C-197.45090439 14.384452 -192.23108997 13.17392703 -187 12 C-185.92588867 11.75894531 -184.85177734 11.51789062 -183.74511719 11.26953125 C-159.59716574 5.91690516 -135.29679704 2.24390819 -110.64501953 0.2265625 C-107.88395439 -0.00994003 -105.12830686 -0.28485582 -102.37109375 -0.5625 C-68.41910126 -3.79786661 -33.97129857 -2.29335094 0 0 Z " fill="#FBD016" transform="translate(623,2)"/>
<path d="M0 0 C8.05113012 3.1091335 16.17432305 12.05619634 21 19 C22.32975353 23.81396715 21.92444885 27.11791067 21 32 C20.73684979 34.66109974 20.54224303 37.32317819 20.34887695 39.99023438 C20.11532555 43.19526254 19.84296032 46.39573237 19.5703125 49.59765625 C18.77160416 59.4759186 18.28183059 69.37247747 17.78564453 79.26977539 C17.34518768 87.84772326 16.74444626 96.40086737 16.03515625 104.9609375 C14.94379249 118.17061396 14.17108822 131.3913399 13.4375 144.625 C13.18961066 149.09655457 12.93782157 153.56786431 12.68359375 158.0390625 C12.62940781 159.04006989 12.57522186 160.04107727 12.51939392 161.07241821 C12.23289634 166.10238971 11.80797377 171.02619458 11 176 C14.3 176 17.6 176 21 176 C22.37065208 165.70972568 23.7216806 155.41784727 24.94921875 145.109375 C25.02953339 144.43523056 25.10984802 143.76108612 25.19259644 143.06651306 C25.35728863 141.68349312 25.52197157 140.30047207 25.68664551 138.91744995 C27.13182232 126.79079906 28.7206531 114.69993557 30.49755859 102.61645508 C31.83365038 93.42673465 32.96899957 84.22089325 34.0625 75 C35.167779 65.71771061 36.28063244 56.43883712 37.625 47.1875 C37.73593994 46.39408203 37.84687988 45.60066406 37.96118164 44.78320312 C38.50940262 41.14200347 39.26010762 38.2312922 41 35 C43.5794078 37.16796852 46.07338114 39.41676399 48.5625 41.6875 C49.64821289 42.59725586 49.64821289 42.59725586 50.75585938 43.52539062 C53.85155882 46.41568821 55.8106291 48.53446695 56.36474609 52.82275391 C56.16387635 56.29817947 55.65500096 59.58040539 55 63 C54.6453064 64.91945435 54.6453064 64.91945435 54.28344727 66.87768555 C53.58590877 70.48049287 52.81323017 74.06404604 52.02020264 77.64691162 C51.10102548 81.80472426 50.21305395 85.96925903 49.3203125 90.1328125 C49.1315152 91.00986847 48.9427179 91.88692444 48.74819946 92.79055786 C46.52833115 103.13275135 44.44451768 113.50183887 42.375 123.875 C42.18648468 124.81862396 41.99796936 125.76224792 41.80374146 126.73446655 C38.3990169 143.79765997 35.14012983 160.88619848 32 178 C32.969375 178.21914063 33.93875 178.43828125 34.9375 178.6640625 C51.6258898 182.55858089 69.14946029 188.21189972 83.2109375 198.3046875 C85.74525871 200.22233267 85.74525871 200.22233267 88.00831604 199.82284546 C90.49405463 198.79588599 91.20607707 197.77908619 92.65600586 195.52978516 C93.1437851 194.78613708 93.63156433 194.04248901 94.13412476 193.27630615 C94.65576202 192.45551575 95.17739929 191.63472534 95.71484375 190.7890625 C96.27434723 189.93024475 96.83385071 189.071427 97.41030884 188.18658447 C98.62518377 186.31936806 99.83480934 184.44872827 101.03982544 182.57513428 C104.27176265 177.55074867 107.54139414 172.55092659 110.8046875 167.546875 C111.47776443 166.51227142 112.15084137 165.47766785 112.84431458 164.41171265 C119.96246425 153.4840793 127.24974372 142.67298737 134.5625 131.875 C136.31529249 129.28522888 138.06794102 126.69537012 139.81837463 124.10400391 C140.92972494 122.46432883 142.0465063 120.82831992 143.16905212 119.19628906 C145.94807433 115.13883437 148.58570654 111.05633197 151.05517578 106.80224609 C158.14927517 94.81728417 158.14927517 94.81728417 163.18774414 92.59228516 C166.56104661 92.22712204 169.39632389 92.39058012 172.75 92.875 C173.84054687 92.95621094 174.93109375 93.03742188 176.0546875 93.12109375 C178.72250173 93.33171066 181.35130558 93.62409359 184 94 C180.43232852 99.50181082 176.73352924 104.75497314 172.5625 109.8125 C167.70591454 115.78906249 163.0375817 121.88664811 158.4375 128.0625 C153.23045381 135.04962022 147.94318897 141.95680378 142.53515625 148.7890625 C135.51239052 157.66189728 128.69547738 166.69997012 121.82568359 175.69140625 C118.47723151 180.07296504 115.11792837 184.44590302 111.75 188.8125 C107.11178407 194.83457708 102.54483411 200.9072876 98 207 C100.57784846 209.64752004 102.91648098 211.94432065 106 214 C106.22558594 213.45472656 106.45117188 212.90945313 106.68359375 212.34765625 C108.39143019 209.30193014 110.67051771 206.94676028 113.0625 204.4375 C116.65112328 200.60534209 120.09644611 196.73079568 123.375 192.625 C127.42601724 187.58663806 131.77223557 182.8969524 136.20043945 178.1940918 C140.24254193 173.87790843 143.99588108 169.39505501 147.69140625 164.77734375 C150.35279458 161.57557201 153.15462246 158.53765082 156 155.5 C159.64888449 151.60423719 163.15698438 147.66665716 166.5 143.5 C170.83927344 138.09563218 175.50396415 133.05044877 180.2265625 127.984375 C183.57139652 124.39599595 186.80549888 120.72257171 190 117 C190.45407227 116.47229004 190.90814453 115.94458008 191.37597656 115.40087891 C193.96464424 112.3922718 196.55087562 109.38157329 199.1328125 106.3671875 C199.6285376 105.80950684 200.1242627 105.25182617 200.63500977 104.67724609 C202.23455784 102.8095302 202.23455784 102.8095302 203.91015625 99.59375 C205.91024293 97.18582442 207.0343456 96.99497752 210.20214844 96.53173828 C214.25710003 96.4077541 218.26077676 96.47647574 222.3125 96.625 C223.73497003 96.65511718 225.15750098 96.68248995 226.58007812 96.70703125 C230.05465683 96.77293801 233.52694165 96.87635849 237 97 C237.27453458 101.10649969 237.47263127 105.20937564 237.60424805 109.32299805 C237.65915222 110.71749958 237.7339223 112.11137983 237.82983398 113.50366211 C238.60419177 125.04449177 238.60419177 125.04449177 234.70239258 129.80078125 C231.90109474 132.08025247 229.04106205 134.05633568 226 136 C224.9080103 136.91026185 223.83461812 137.84450542 222.80078125 138.8203125 C216.56787114 144.59333757 210.24616801 150.23486313 203.78125 155.74609375 C202.58319225 156.7680638 201.3852799 157.79020431 200.1875 158.8125 C199.58147949 159.32965576 198.97545898 159.84681152 198.35107422 160.37963867 C194.60967738 163.5847653 190.93901522 166.85193729 187.3125 170.1875 C183.83863691 173.37736844 180.30089975 176.42048894 176.625 179.375 C171.82779065 183.24283546 167.32795793 187.35109495 162.83422852 191.56030273 C159.50880245 194.65750846 156.11298325 197.59607067 152.5625 200.4375 C147.55062893 204.45721027 142.88405104 208.76924216 138.22241211 213.18310547 C133.66586241 217.46872518 128.91962177 221.33988049 123.9140625 225.09765625 C123.28242188 225.72542969 122.65078125 226.35320312 122 227 C122 231.36384478 122.45138255 231.81422819 125 235 C125 235.66 125 236.32 125 237 C132.84334021 231.14929217 140.63055768 225.23182332 148.37646484 219.25292969 C156.79805177 212.75374411 165.2412973 206.28319821 173.69335938 199.82373047 C180.13946892 194.89614763 186.57184418 189.9509786 193 185 C200.8792503 178.9313855 208.76731125 172.8746925 216.67358398 166.84130859 C220.0705046 164.24763303 223.4610569 161.64686954 226.83203125 159.01953125 C227.42242188 158.560625 228.0128125 158.10171875 228.62109375 157.62890625 C230.20381597 156.3970878 231.78365668 155.16156948 233.36328125 153.92578125 C235.55588657 152.32436729 237.57026619 151.16460435 240 150 C243.00622854 169.40226033 243.00622854 169.40226033 238.50238037 176.29046631 C233.3956913 181.41552302 226.96625267 184.71476374 220.6875 188.1875 C218.69156735 189.37852309 216.70139043 190.57923956 214.71679688 191.7890625 C210.58560258 194.30061338 206.43433508 196.77291632 202.26708984 199.22412109 C193.16005816 204.64096584 184.45151897 210.64058756 175.71890259 216.63516235 C171.42925911 219.57733788 167.12228946 222.49369302 162.8125 225.40625 C162.01322586 225.94699661 161.21395172 226.48774323 160.39045715 227.0448761 C151.33911769 233.15037309 142.17574237 239.08371145 133 245 C133.35795654 245.6283374 133.71591309 246.2566748 134.0847168 246.90405273 C143.90314983 264.27998541 152.62357478 282.00717219 155 302 C186.59098687 295.8550239 186.59098687 295.8550239 218.15478516 289.57226562 C224.18128571 288.36013955 230.20962465 287.15716936 236.23779297 285.95336914 C241.47250421 284.90749537 246.70651858 283.85833942 251.93910217 282.80186462 C254.66668104 282.25137957 257.39456072 281.70239369 260.12246704 281.15353394 C262.07826159 280.75941834 264.03364308 280.36325467 265.98901367 279.96704102 C267.19146729 279.72526123 268.3939209 279.48348145 269.6328125 279.234375 C270.69387207 279.02006836 271.75493164 278.80576172 272.84814453 278.58496094 C273.88825684 278.39192383 274.92836914 278.19888672 276 278 C277.20003662 277.73936768 278.40007324 277.47873535 279.63647461 277.21020508 C283 277 283 277 285.26342773 278.35522461 C285.89708252 279.03077393 286.5307373 279.70632324 287.18359375 280.40234375 C288.23256836 281.48999023 288.23256836 281.48999023 289.30273438 282.59960938 C290.00720703 283.37111328 290.71167969 284.14261719 291.4375 284.9375 C292.53481445 286.08895508 292.53481445 286.08895508 293.65429688 287.26367188 C295.45551087 289.15906699 297.23549078 291.07049441 299 293 C296.27624846 295.72375154 294.38105734 295.50947174 290.5703125 295.9296875 C289.91723114 296.0047049 289.26414978 296.07972229 288.59127808 296.15701294 C287.17779958 296.31875819 285.76388432 296.47672111 284.34960938 296.63134766 C280.56687989 297.04565451 276.78749956 297.48861883 273.0078125 297.9296875 C272.24124329 298.0185321 271.47467407 298.10737671 270.68487549 298.19891357 C263.77110992 299.00809436 256.88570211 299.97985876 250 301 C239.15196672 302.59562014 228.28980589 303.96558189 217.40133667 305.24697876 C207.59493103 306.40266879 197.82915411 307.72664143 188.0625 309.1875 C177.70641797 310.72877513 167.46556528 311.72313319 157 312 C157.33 312.99 157.66 313.98 158 315 C158.12781786 317.67394964 158.04391871 320.32095857 158 323 C158.63622001 322.94960131 159.27244001 322.89920261 159.92793941 322.84727669 C177.58082428 321.45479053 195.2406135 320.21484979 212.91015625 319.0546875 C214.90753519 318.9230018 216.90491407 318.79131531 218.90228838 318.65955937 C225.13178943 318.24869868 231.36139445 317.83944264 237.59106445 317.43115234 C243.98089068 317.01232611 250.37049234 316.59018491 256.76000315 316.16657627 C262.30273493 315.79925257 267.84561391 315.4342098 273.38861173 315.07092297 C276.67557488 314.8554591 279.96245406 314.63883553 283.24922371 314.42043686 C286.89652207 314.17837371 290.54404656 313.9400463 294.19165039 313.70263672 C295.25923584 313.6309729 296.32682129 313.55930908 297.42675781 313.48547363 C314.07163807 312.41458049 314.07163807 312.41458049 317.76586914 314.74414062 C318.51473389 315.54013672 319.26359863 316.33613281 320.03515625 317.15625 C321.27749023 318.44208984 321.27749023 318.44208984 322.54492188 319.75390625 C323.37572266 320.66011719 324.20652344 321.56632812 325.0625 322.5 C325.92810547 323.40621094 326.79371094 324.31242187 327.68554688 325.24609375 C329.81214638 327.47843577 331.91491758 329.72894819 334 332 C331.71104622 337.04729154 328.11373895 340.72417931 324.375 344.75 C323.37339844 345.93916016 323.37339844 345.93916016 322.3515625 347.15234375 C319.201121 350.49250162 316.62094775 352.78083675 311.96972656 353.40971375 C310.79635742 353.38367569 309.62298828 353.35763763 308.4140625 353.33081055 C307.73349478 353.31747649 307.05292706 353.30414244 306.35173607 353.29040432 C294.61015087 352.98102163 282.8803615 352.07467979 271.1640625 351.28515625 C268.47243238 351.10710336 265.78069545 350.93069052 263.08895874 350.7542572 C256.75349244 350.33810581 250.4183789 349.91682629 244.08338964 349.4934811 C234.83137807 348.87542613 225.57885947 348.26504725 216.32633018 347.65479946 C214.94504152 347.56368656 213.56375299 347.47257158 212.1824646 347.38145447 C211.50644522 347.3368707 210.83042584 347.29228693 210.13392103 347.24635214 C205.54989585 346.94383206 200.96603779 346.63886289 196.38223267 346.33302307 C183.59162671 345.48191331 170.80160728 344.66749128 158 344 C158 347.3 158 350.6 158 354 C159.49660156 354.12761719 160.99320313 354.25523437 162.53515625 354.38671875 C169.85281149 355.05365908 177.1438923 355.92476616 184.4375 356.8125 C185.15719971 356.89959229 185.87689941 356.98668457 186.6184082 357.07641602 C197.5729614 358.40551866 208.49555359 359.8975731 219.41357422 361.50146484 C228.28106184 362.79007447 237.16433435 363.88918876 246.0625 364.9375 C263.41983842 366.98243287 280.7094318 369.45703854 298 372 C295.99418989 376.34031578 293.2083969 379.3767469 289.9375 382.8125 C289.40189453 383.42287109 288.86628906 384.03324219 288.31445312 384.66210938 C286.61802101 386.43030595 285.09673359 387.73156547 283 389 C274.82477052 388.6594756 266.75895641 386.69504432 258.7421875 385.12109375 C257.24562773 384.82991356 255.74901393 384.53901092 254.25234985 384.24836731 C250.27716844 383.47530325 246.30293919 382.69745083 242.32894897 381.91828918 C239.87273704 381.43705663 237.41627244 380.9571359 234.9597168 380.47766113 C216.12657369 376.80143442 197.29705119 373.10727313 178.5 369.25 C177.34223053 369.01287796 177.34223053 369.01287796 176.16107178 368.77096558 C169.07211313 367.31543318 162.00086745 365.84043423 155 364 C154.89816406 365.27746094 154.79632812 366.55492187 154.69140625 367.87109375 C154.09463769 373.18389076 152.65839144 378.01568208 150.9375 383.0625 C150.63021973 383.97354492 150.32293945 384.88458984 150.00634766 385.82324219 C146.14274079 396.92261356 140.83391355 407.218875 134.8125 417.30078125 C133.78430895 419.13717116 133.78430895 419.13717116 134 422 C135.40757731 423.36206494 135.40757731 423.36206494 137.35668945 424.54248047 C138.10041809 425.03034027 138.84414673 425.51820007 139.6104126 426.02084351 C140.43635925 426.54763702 141.26230591 427.07443054 142.11328125 427.6171875 C142.97346863 428.17806061 143.83365601 428.73893372 144.71990967 429.31680298 C146.59341439 430.53705085 148.4699739 431.75261806 150.34915161 432.96411133 C155.38712465 436.21280313 160.40270056 439.4958095 165.421875 442.7734375 C166.45977676 443.44981262 167.49767853 444.12618774 168.56703186 444.82305908 C179.47325184 451.93872924 190.27535901 459.20554017 201.0625 466.5 C203.64159462 468.24138557 206.22072914 469.98270909 208.80053711 471.72303772 C210.44018303 472.8338205 212.0761054 473.95012219 213.70800781 475.07225037 C217.88166565 477.93671786 222.0872415 480.68305111 226.42260742 483.29760742 C239.1121403 491.1073153 239.1121403 491.1073153 241.48999023 496.17626953 C241.8711346 499.43471016 241.70843205 502.07934684 241.1875 505.3125 C241.05891602 506.87000977 241.05891602 506.87000977 240.92773438 508.45898438 C240.70563001 510.99565005 240.39790025 513.48597925 240 516 C236.62305963 514.36838442 233.80457492 512.46215216 230.8125 510.1875 C230.30130615 509.80005615 229.7901123 509.4126123 229.26342773 509.01342773 C227.50605539 507.67938109 225.75287634 506.33994797 224 505 C222.6302303 503.95570036 221.26043769 502.91143076 219.890625 501.8671875 C210.20788291 494.47821907 200.5558595 487.04933623 190.90625 479.6171875 C184.04707098 474.33697791 177.17564259 469.07308252 170.29785156 463.81713867 C166.02626667 460.55201597 161.76001126 457.28020867 157.5 454 C152.3780348 450.05853811 147.25410591 446.11966676 142.125 442.1875 C141.42310547 441.64802734 140.72121094 441.10855469 139.99804688 440.55273438 C133.01855273 434.27615525 133.01855273 434.27615525 125 431 C123.61767557 432.62626404 122.28062485 434.2925002 121 436 C122.56331008 439.9684025 125.32122701 442.41568551 128.4375 445.1875 C128.97318604 445.67162354 129.50887207 446.15574707 130.06079102 446.65454102 C134.30279123 450.45678742 138.70334046 454.04165193 143.140625 457.61328125 C147.58338254 461.32164854 151.78374974 465.28156198 156.015625 469.2265625 C160.63353761 473.53105514 165.40761607 477.64312405 170.2109375 481.73828125 C171.41162041 482.76283092 172.61213621 483.78757646 173.8125 484.8125 C174.41868164 485.32981689 175.02486328 485.84713379 175.64941406 486.38012695 C179.3907082 489.58502229 183.06115383 492.85209278 186.6875 496.1875 C190.16136309 499.37736844 193.69910025 502.42048894 197.375 505.375 C203.36550476 510.20854032 208.94830841 515.43493809 214.57519531 520.6796875 C216.38204771 522.35402913 218.21293419 523.99799605 220.0625 525.625 C220.66191406 526.18316406 221.26132812 526.74132812 221.87890625 527.31640625 C224.05789828 529.16258212 224.05789828 529.16258212 227.15234375 530.58984375 C231.10432887 532.91860978 234.07520241 534.79824212 236 539 C237.55158895 548.85656826 236.72665578 559.09698592 236 569 C209.04864086 571.2494961 209.04864086 571.2494961 202.71875 566.4921875 C200.0792152 563.86843165 198.01814785 560.91018771 196.08398438 557.73974609 C194.45737401 555.12910973 192.48248001 552.84639679 190.5 550.5 C189.7884375 549.613125 189.076875 548.72625 188.34375 547.8125 C185.66791829 544.60150195 182.85641724 541.54970863 180 538.5 C176.35113344 534.60421766 172.84301761 530.66665963 169.5 526.5 C165.16072656 521.09563218 160.49603585 516.05044877 155.7734375 510.984375 C151.46894486 506.36646239 147.35687595 501.59238393 143.26171875 496.7890625 C142.23716908 495.58837959 141.21242354 494.38786379 140.1875 493.1875 C139.67018311 492.58131836 139.15286621 491.97513672 138.61987305 491.35058594 C135.41497771 487.6092918 132.14790722 483.93884617 128.8125 480.3125 C124.79861286 475.94011576 121.04190888 471.41152567 117.31640625 466.79296875 C113.37769222 462.04392907 109.19263325 457.52524298 105 453 C102.69 454.65 100.38 456.3 98 458 C99.31772317 460.80596158 100.79272252 463.2017865 102.6875 465.65234375 C103.21601563 466.33941406 103.74453125 467.02648437 104.2890625 467.734375 C104.85367187 468.46140625 105.41828125 469.1884375 106 469.9375 C106.58523438 470.69675781 107.17046875 471.45601562 107.7734375 472.23828125 C108.96083336 473.77826627 110.14962381 475.31717707 111.33984375 476.85498047 C113.56633078 479.73173268 115.78310525 482.6158491 118 485.5 C119.19109375 487.046875 119.19109375 487.046875 120.40625 488.625 C123.44607633 492.57677422 126.47273515 496.53860018 129.5 500.5 C134.98559397 507.67783063 140.48751244 514.84280304 146 522 C151.51248791 529.15719741 157.01431957 536.32223505 162.5 543.5 C166.51583935 548.75384033 170.53352256 554.00622482 174.5625 559.25 C175.32691406 560.24515625 176.09132813 561.2403125 176.87890625 562.265625 C178.31275709 564.1140515 179.78022671 565.93680738 181.27734375 567.734375 C183 570 183 570 183 572 C179.33541373 572.32236456 175.67447572 572.51560776 172 572.6875 C170.97003906 572.77966797 169.94007813 572.87183594 168.87890625 572.96679688 C164.51685644 573.11960754 161.32293531 573.14597224 157.9284668 570.20556641 C156.17998952 567.84955371 154.63136717 565.43993867 153.14691162 562.91030884 C151.38230648 559.97116275 149.45664575 557.14325819 147.55081177 554.29441833 C145.838026 551.7278275 144.14421263 549.14959456 142.45507812 546.56738281 C129.5593499 526.85444085 116.49721122 507.26082932 103.28051758 487.76171875 C102.69434158 486.89601257 102.10816559 486.0303064 101.50422668 485.1383667 C100.41998191 483.53753873 99.33447419 481.93756499 98.24736023 480.33868408 C95.05405871 475.62497789 91.98255396 470.84982268 89 466 C84.90176733 467.49303644 81.35843315 469.50471852 77.625 471.75 C67.25584742 477.79376595 56.19678151 481.71216516 44.8125 485.375 C43.99821533 485.63812988 43.18393066 485.90125977 42.3449707 486.17236328 C41.57757568 486.41196777 40.81018066 486.65157227 40.01953125 486.8984375 C39.33995361 487.11161621 38.66037598 487.32479492 37.96020508 487.54443359 C36 488 36 488 32 488 C36.60259281 512.99177787 36.60259281 512.99177787 41.75 537.875 C44.66428157 551.21168369 47.40329863 564.58335074 50.10803223 577.96392822 C50.61652562 580.474063 51.12780671 582.98363477 51.64196777 585.49261475 C52.37048092 589.05087554 53.08879151 592.61105711 53.8046875 596.171875 C54.13703903 597.78121414 54.13703903 597.78121414 54.47610474 599.42306519 C57.33271851 613.78825438 57.33271851 613.78825438 54.62304688 618.28515625 C53.68041992 619.16494141 53.68041992 619.16494141 52.71875 620.0625 C51.70361328 621.03896484 51.70361328 621.03896484 50.66796875 622.03515625 C49.95253906 622.68355469 49.23710937 623.33195313 48.5 624 C47.78457031 624.67933594 47.06914062 625.35867188 46.33203125 626.05859375 C44.57141474 627.72531071 42.79499749 629.37049874 41 631 C38.99440963 627.99161444 38.62394552 626.73169102 38.140625 623.26953125 C37.99753906 622.2635791 37.85445313 621.25762695 37.70703125 620.22119141 C37.55621094 619.09632324 37.40539062 617.97145508 37.25 616.8125 C37.08371094 615.61286621 36.91742188 614.41323242 36.74609375 613.17724609 C34.76307854 598.73850158 33.00882653 584.26823913 31.21630859 569.80493164 C28.91243214 551.21694879 26.54217865 532.6404903 23.8671875 514.1015625 C23.68043457 512.80637695 23.49368164 511.51119141 23.30126953 510.17675781 C22.94350606 507.70948908 22.58268426 505.24266115 22.21826172 502.77636719 C22.0585791 501.68227539 21.89889648 500.58818359 21.734375 499.4609375 C21.59225586 498.49978027 21.45013672 497.53862305 21.30371094 496.54833984 C21 494 21 494 21 490 C20.34 490.33 19.68 490.66 19 491 C16.3276379 491.13415472 13.67749512 491.04318541 11 491 C11.12117188 492.22847656 11.24234375 493.45695312 11.3671875 494.72265625 C13.32526771 515.08787596 14.51539202 535.49955178 15.6875 555.921875 C15.8737717 559.15898845 16.06024176 562.39609031 16.24694824 565.63317871 C16.37392554 567.83506755 16.50063477 570.03697187 16.6270752 572.2388916 C17.59026153 588.94668374 18.72027182 605.63433154 20.08569336 622.31420898 C20.32536458 625.24950019 20.53947181 628.18453533 20.72802734 631.12353516 C20.89793792 633.5452947 21.12358638 635.96453235 21.43212891 638.37255859 C21.85380549 643.05593995 21.79060041 645.82400628 19.11987305 649.79663086 C16.54498762 652.63507731 13.85576439 655.19524862 11 657.75 C9.56914063 659.09964844 9.56914063 659.09964844 8.109375 660.4765625 C5.76445485 662.68078744 3.39644028 664.85212666 1 667 C-3.89831361 662.8392703 -8.75348399 658.65148806 -13.4375 654.25 C-14.07365234 653.693125 -14.70980469 653.13625 -15.36523438 652.5625 C-17.93553986 650.11090895 -19.76076066 648.25734155 -20.4375 644.70068359 C-20.46631789 642.09317937 -20.2794156 639.59220927 -20 637 C-19.91045044 635.7325293 -19.91045044 635.7325293 -19.8190918 634.43945312 C-19.62171131 631.66422659 -19.37556117 628.89591172 -19.125 626.125 C-18.2093075 615.42447906 -17.56441123 604.72325314 -17 594 C-16.41073371 582.8461342 -15.70681357 571.72153953 -14.75 560.59204102 C-13.91641344 550.60772537 -13.40474236 540.61012961 -12.87701416 530.6060791 C-12.17558115 517.37975499 -11.22735093 504.18908943 -10 491 C-11.093125 491.020625 -12.18625 491.04125 -13.3125 491.0625 C-17 491 -17 491 -20 490 C-20.15033691 491.37043457 -20.15033691 491.37043457 -20.30371094 492.76855469 C-23.69696111 523.52325067 -23.69696111 523.52325067 -25.875 538.1875 C-27.6358802 550.04409336 -29.13989029 561.92474163 -30.60760498 573.82064819 C-34.33851636 604.05008343 -34.33851636 604.05008343 -36.25 617.875 C-36.40082031 619.00808594 -36.55164063 620.14117188 -36.70703125 621.30859375 C-36.85011719 622.31792969 -36.99320312 623.32726562 -37.140625 624.3671875 C-37.25954102 625.22425293 -37.37845703 626.08131836 -37.50097656 626.96435547 C-38 629 -38 629 -40 631 C-42.52877464 628.67523111 -45.01693355 626.31095361 -47.5 623.9375 C-48.21542969 623.28072266 -48.93085938 622.62394531 -49.66796875 621.94726562 C-50.68310547 620.9659668 -50.68310547 620.9659668 -51.71875 619.96484375 C-52.66137695 619.07720337 -52.66137695 619.07720337 -53.62304688 618.17163086 C-56.8407373 613.09692229 -54.61287828 606.11593108 -53.44287109 600.54321289 C-53.19398132 599.31667999 -53.19398132 599.31667999 -52.94006348 598.06536865 C-52.39083365 595.3664656 -51.83206945 592.66962742 -51.2734375 589.97265625 C-50.88357799 588.06405557 -50.49440019 586.15531552 -50.10586548 584.2464447 C-49.07829359 579.20560741 -48.0430028 574.16638876 -47.00561523 569.12756348 C-45.16939499 560.20273692 -43.34619109 551.27524101 -41.5234375 542.34765625 C-41.32727592 541.38826771 -41.13111435 540.42887917 -40.92900848 539.44041824 C-37.43255248 522.32728021 -34.13071093 505.18373628 -31 488 C-31.68113358 487.86518723 -32.36226715 487.73037445 -33.06404114 487.59147644 C-34.40869698 487.32419487 -34.40869698 487.32419487 -35.78051758 487.05151367 C-36.66790115 486.8754509 -37.55528473 486.69938812 -38.46955872 486.51799011 C-53.64655538 483.41120623 -66.77154764 476.94380876 -80.1953125 469.48046875 C-82.75718122 468.12817315 -85.30529768 467.05190176 -88 466 C-88.44837471 466.68362358 -88.44837471 466.68362358 -88.9058075 467.38105774 C-106.13676698 493.64609441 -123.52846043 519.79427623 -141.14329529 545.80345154 C-145.57464883 552.35322739 -149.96387083 558.93059313 -154.32972717 565.52420044 C-154.79833664 566.23019379 -155.26694611 566.93618713 -155.74975586 567.66357422 C-156.16172714 568.28593964 -156.57369843 568.90830505 -156.99815369 569.54953003 C-158 571 -158 571 -159 572 C-160.70772358 572.08713831 -162.41898649 572.10700007 -164.12890625 572.09765625 C-165.16337891 572.09443359 -166.19785156 572.09121094 -167.26367188 572.08789062 C-168.35228516 572.07951172 -169.44089844 572.07113281 -170.5625 572.0625 C-172.2012207 572.05573242 -172.2012207 572.05573242 -173.87304688 572.04882812 C-176.58208495 572.03699826 -179.29101599 572.02051543 -182 572 C-180.24497644 568.32848679 -178.00601033 565.25066214 -175.5 562.0625 C-174.58976629 560.89198731 -173.67961215 559.72141275 -172.76953125 558.55078125 C-172.30627441 557.9573291 -171.84301758 557.36387695 -171.36572266 556.75244141 C-169.29416081 554.09429501 -167.24110161 551.42203483 -165.1875 548.75 C-164.58131836 547.9621814 -164.58131836 547.9621814 -163.96289062 547.15844727 C-160.46617033 542.61257577 -156.98250014 538.05676978 -153.5 533.5 C-147.2239682 525.28795956 -140.92395545 517.09470937 -134.6171875 508.90625 C-129.90052673 502.77914083 -125.19523154 496.64354936 -120.5 490.5 C-116.96581975 485.87595484 -113.43136201 481.25215474 -109.8840332 476.63818359 C-108.66689373 475.05450977 -107.45253718 473.46869831 -106.23828125 471.8828125 C-104.78017006 470.00482636 -103.2992725 468.14424429 -101.79296875 466.3046875 C-101.13941406 465.50289062 -100.48585938 464.70109375 -99.8125 463.875 C-99.24144531 463.19179688 -98.67039062 462.50859375 -98.08203125 461.8046875 C-97.72496094 461.20914062 -97.36789062 460.61359375 -97 460 C-98.33332095 456.00003714 -100.4957827 455.16217663 -104 453 C-108.95019696 458.3429057 -113.81431814 463.69297618 -118.375 469.375 C-122.76344127 474.81386605 -127.46446412 479.90728904 -132.2265625 485.015625 C-136.53105514 489.63353761 -140.64312405 494.40761607 -144.73828125 499.2109375 C-145.76283092 500.41162041 -146.78757646 501.61213621 -147.8125 502.8125 C-148.32981689 503.41868164 -148.84713379 504.02486328 -149.38012695 504.64941406 C-152.58502229 508.3907082 -155.85209278 512.06115383 -159.1875 515.6875 C-162.37736844 519.16136309 -165.42048894 522.69910025 -168.375 526.375 C-172.24218863 531.1714071 -176.34980716 535.6704146 -180.55810547 540.16357422 C-183.67539336 543.51081785 -186.63566482 546.92995906 -189.5 550.5 C-190.60601562 551.80904297 -190.60601562 551.80904297 -191.734375 553.14453125 C-193.42870702 555.27997385 -194.79668639 557.26881305 -196.203125 559.57421875 C-198.93117336 563.6331417 -201.46494567 566.92940904 -206 569 C-215.52668586 570.6015638 -225.41954418 569.79963307 -235 569 C-235.27453458 564.89350031 -235.47263127 560.79062436 -235.60424805 556.67700195 C-235.65915222 555.28250042 -235.7339223 553.88862017 -235.82983398 552.49633789 C-236.60385324 540.96055353 -236.60385324 540.96055353 -232.73754883 536.234375 C-229.92481464 533.95060276 -227.04006137 531.96712923 -224 530 C-222.7594614 528.94650626 -221.5418013 527.86462928 -220.36328125 526.7421875 C-219.59866577 526.02772461 -219.59866577 526.02772461 -218.81860352 525.29882812 C-218.07308228 524.5940332 -218.07308228 524.5940332 -217.3125 523.875 C-216.20378538 522.84043767 -215.09441402 521.80657868 -213.984375 520.7734375 C-213.46681641 520.29100586 -212.94925781 519.80857422 -212.41601562 519.31152344 C-208.31094624 515.50937987 -204.04618115 511.89120104 -199.7890625 508.26171875 C-198.58837959 507.23716908 -197.38786379 506.21242354 -196.1875 505.1875 C-195.58131836 504.67018311 -194.97513672 504.15286621 -194.35058594 503.61987305 C-190.6092918 500.41497771 -186.93884617 497.14790722 -183.3125 493.8125 C-179.83863691 490.62263156 -176.30089975 487.57951106 -172.625 484.625 C-167.82779065 480.75716454 -163.32795793 476.64890505 -158.83422852 472.43969727 C-155.50880245 469.34249154 -152.11298325 466.40392933 -148.5625 463.5625 C-144.13352389 460.00766391 -139.95569849 456.25357514 -135.8125 452.375 C-135.21671143 451.81731934 -134.62092285 451.25963867 -134.00708008 450.68505859 C-132.8602773 449.61091913 -131.71354587 448.53670347 -130.56689453 447.46240234 C-128.48064502 445.51527948 -126.3767124 443.59034794 -124.25 441.6875 C-123.65703125 441.15511719 -123.0640625 440.62273437 -122.453125 440.07421875 C-121 439 -121 439 -119 439 C-120.98 435.535 -120.98 435.535 -123 432 C-127.2777521 431.99895344 -127.2777521 431.99895344 -130.43359375 434.2734375 C-131.39688599 435.00844482 -131.39688599 435.00844482 -132.37963867 435.75830078 C-133.05873291 436.29181152 -133.73782715 436.82532227 -134.4375 437.375 C-135.14688721 437.9201123 -135.85627441 438.46522461 -136.5871582 439.02685547 C-138.73110192 440.67656045 -140.86553274 442.33806381 -143 444 C-144.16043072 444.8919635 -145.32180979 445.78269533 -146.484375 446.671875 C-149.66377028 449.10492436 -152.83214884 451.55193524 -156 454 C-158.08283807 455.60480966 -160.16617996 457.20896562 -162.25 458.8125 C-162.7761792 459.21742676 -163.3023584 459.62235352 -163.84448242 460.03955078 C-169.11900904 464.0961541 -174.40648144 468.13578602 -179.69335938 472.17626953 C-186.13946892 477.10385237 -192.57184418 482.0490214 -199 487 C-202.1550145 489.42999854 -205.31051724 491.8593426 -208.46875 494.28515625 C-211.07658672 496.28824463 -213.67941493 498.29771722 -216.28125 500.30859375 C-217.770746 501.45584257 -219.26032848 502.6029791 -220.75 503.75 C-221.43481445 504.28085205 -222.11962891 504.8117041 -222.82519531 505.35864258 C-226.39203095 508.09969498 -230.00707063 510.70880222 -233.75878906 513.19238281 C-234.55673889 513.72148254 -235.35468872 514.25058228 -236.17681885 514.79571533 C-236.77846863 515.19312927 -237.38011841 515.59054321 -238 516 C-241.00622854 496.59773967 -241.00622854 496.59773967 -236.50238037 489.70953369 C-231.39568669 484.58447235 -224.96623101 481.28528608 -218.6875 477.8125 C-216.693027 476.62221687 -214.70431432 475.42223359 -212.72119141 474.21313477 C-208.59151295 471.70222428 -204.4417352 469.23062931 -200.27587891 466.78027344 C-191.13110378 461.34161601 -182.38099071 455.32434301 -173.60903931 449.30990601 C-169.29130803 446.35290903 -164.95404891 443.42492992 -160.6171875 440.49609375 C-159.81765152 439.95594131 -159.01811554 439.41578888 -158.1943512 438.85926819 C-156.60366147 437.7847222 -155.0127966 436.71043543 -153.42175293 435.63641357 C-151.75547414 434.51048483 -150.09024976 433.38299459 -148.42590332 432.25421143 C-145.91447253 430.551804 -143.39910131 428.85537206 -140.8828125 427.16015625 C-140.11750214 426.63949081 -139.35219177 426.11882538 -138.56369019 425.5823822 C-137.86091949 425.11055008 -137.1581488 424.63871796 -136.43408203 424.15258789 C-135.81695343 423.73537979 -135.19982483 423.31817169 -134.56399536 422.88832092 C-133 422 -133 422 -131 422 C-131.68964844 420.88367188 -132.37929687 419.76734375 -133.08984375 418.6171875 C-142.73666519 402.68061088 -154 383.19115295 -154 364 C-154.53061539 364.12528076 -155.06123077 364.25056152 -155.60792542 364.37963867 C-170.98075918 367.98919293 -186.42008082 371.08272064 -201.9375 374 C-216.63994724 376.76853732 -231.29355233 379.66141552 -245.90356445 382.88427734 C-252.29238939 384.2914555 -258.70007644 385.58004611 -265.125 386.8125 C-266.21941406 387.02841797 -267.31382812 387.24433594 -268.44140625 387.46679688 C-269.49457031 387.66982422 -270.54773438 387.87285156 -271.6328125 388.08203125 C-272.54949707 388.25968018 -273.46618164 388.4373291 -274.41064453 388.62036133 C-281.14766453 389.60811035 -281.14766453 389.60811035 -284.03637695 387.54711914 C-285.00256958 386.55119751 -285.00256958 386.55119751 -285.98828125 385.53515625 C-286.69404297 384.81779297 -287.39980469 384.10042969 -288.12695312 383.36132812 C-289.20879883 382.2234082 -289.20879883 382.2234082 -290.3125 381.0625 C-291.42334961 379.93038086 -291.42334961 379.93038086 -292.55664062 378.77539062 C-298 373.18152362 -298 373.18152362 -298 372 C-296.69256836 371.83918945 -295.38513672 371.67837891 -294.03808594 371.51269531 C-261.19108274 367.4696089 -261.19108274 367.4696089 -228.41015625 362.9296875 C-210.24659955 360.27434449 -192.03350998 357.9715932 -173.8125 355.75 C-173.08664703 355.66105469 -172.36079407 355.57210938 -171.61294556 355.48046875 C-169.56122248 355.22966588 -167.50919871 354.98151238 -165.45703125 354.734375 C-164.28116455 354.59225586 -163.10529785 354.45013672 -161.89379883 354.30371094 C-159 354 -159 354 -156 354 C-156.33 350.7 -156.66 347.4 -157 344 C-158.42656166 344.10735222 -158.42656166 344.10735222 -159.88194275 344.21687317 C-188.70037311 346.3793761 -217.53095765 348.33413193 -246.36889648 350.21704102 C-252.45080591 350.61425063 -258.5324514 351.01536619 -264.61404514 351.41737652 C-269.36057381 351.730584 -274.10725634 352.04140774 -278.85398674 352.35154152 C-281.09983658 352.49863313 -283.34563286 352.64654515 -285.59137154 352.79532433 C-288.70081291 353.0010472 -291.81045337 353.2034543 -294.92016602 353.4050293 C-296.28119698 353.49614235 -296.28119698 353.49614235 -297.66972351 353.58909607 C-312.22135689 354.52094272 -312.22135689 354.52094272 -315.74414062 352.1640625 C-316.54013672 351.32617188 -317.33613281 350.48828125 -318.15625 349.625 C-319.0328125 348.72265625 -319.909375 347.8203125 -320.8125 346.890625 C-321.699375 345.93671875 -322.58625 344.9828125 -323.5 344 C-324.42519024 343.03464044 -325.35225871 342.07107725 -326.28125 341.109375 C-328.53992689 338.75658658 -330.77784658 336.38722768 -333 334 C-329.69591313 327.11604231 -323.52149326 322.47839823 -317.796875 317.578125 C-315.99201988 316.10023205 -315.99201988 316.10023205 -314.80641174 314.4186554 C-312.0428096 312.24827585 -309.77500393 312.66168426 -306.30053711 312.72338867 C-305.25448885 312.74022973 -305.25448885 312.74022973 -304.18730831 312.757411 C-293.84232105 312.98530238 -283.51332652 313.73620177 -273.19140625 314.42578125 C-270.8943852 314.57587 -268.59734183 314.72561764 -266.30027771 314.87504578 C-261.49675332 315.18868267 -256.69348656 315.50594444 -251.89038086 315.82592773 C-245.83777462 316.22893777 -239.78466307 316.6236548 -233.73134804 317.01585579 C-208.12106714 318.67825274 -182.53820126 320.43992965 -157 323 C-157.0309375 321.1128125 -157.0309375 321.1128125 -157.0625 319.1875 C-157.10886083 316.35948913 -156.91692961 314.75078884 -156 312 C-157.2271875 312.03609375 -158.454375 312.0721875 -159.71875 312.109375 C-165.74014533 312.10468544 -171.56089592 311.16929794 -177.5 310.25 C-188.1102039 308.6691262 -198.72304298 307.26092043 -209.375 306 C-221.02374121 304.6153667 -232.65761945 303.15212927 -244.28222656 301.57470703 C-250.69955164 300.70440296 -257.11802751 299.85271077 -263.54298401 299.04081726 C-267.04314898 298.59837926 -270.5426424 298.15073904 -274.04214478 297.70309448 C-275.7529 297.48578097 -277.4639796 297.27100472 -279.17538452 297.05886841 C-281.56833095 296.76197031 -283.95998185 296.45611646 -286.3515625 296.1484375 C-287.06682602 296.06209549 -287.78208954 295.97575348 -288.51902771 295.88679504 C-292.03689572 295.42540342 -294.94950724 294.86043848 -298 293 C-295.66905653 290.22955355 -293.25259188 287.54950144 -290.8125 284.875 C-290.15830078 284.09511719 -289.50410156 283.31523438 -288.83007812 282.51171875 C-286.6548544 280.18185827 -284.76695165 278.58668835 -282 277 C-279.53916931 276.94888306 -279.53916931 276.94888306 -276.71069336 277.49853516 C-275.55752121 277.7127713 -274.40434906 277.92700745 -273.2162323 278.1477356 C-272.22536653 278.34803061 -272.22536653 278.34803061 -271.21448326 278.55237198 C-268.74753216 279.05103298 -266.27616163 279.52275195 -263.80366516 279.99313354 C-257.48285377 281.20480351 -251.17125527 282.46152777 -244.859375 283.71875 C-242.52301173 284.18213808 -240.18660553 284.64530982 -237.85015869 285.10827637 C-232.9749626 286.0748829 -228.10013158 287.04330231 -223.22558594 288.01318359 C-216.99346866 289.25314372 -210.76069481 290.48976402 -204.52767563 291.72518158 C-199.71126691 292.6799858 -194.895087 293.63593971 -190.07898712 294.59230042 C-187.78103026 295.04859823 -185.48303174 295.50468625 -183.18498993 295.96055603 C-179.97174556 296.59828483 -176.75878213 297.23741006 -173.54589844 297.87695312 C-172.60750122 298.06298599 -171.669104 298.24901886 -170.70227051 298.44068909 C-165.11704462 299.55432314 -159.55534581 300.74554714 -154 302 C-153.89300781 300.71351563 -153.78601563 299.42703125 -153.67578125 298.1015625 C-153.09574567 292.96639433 -151.81885811 288.26813106 -150.1875 283.375 C-149.89270752 282.48562744 -149.59791504 281.59625488 -149.29418945 280.67993164 C-145.67938871 270.33716055 -140.5110367 260.79707028 -135.2175293 251.23217773 C-134.09591622 249.17584961 -133.04164407 247.09758411 -132 245 C-132.45574905 244.70108353 -132.91149811 244.40216705 -133.38105774 244.0941925 C-155.35346011 229.67938015 -177.28228842 215.20403803 -199.0625 200.5 C-199.93186188 199.91328522 -200.80122375 199.32657043 -201.69692993 198.72207642 C-202.97000504 197.86251846 -202.97000504 197.86251846 -204.26879883 196.9855957 C-205.10427246 196.42188263 -205.93974609 195.85816956 -206.80053711 195.27737427 C-208.44012799 194.16635691 -210.07604892 193.04990171 -211.70800781 191.92770386 C-215.88169351 189.06329663 -220.08725014 186.31694368 -224.42260742 183.70239258 C-237.1121403 175.8926847 -237.1121403 175.8926847 -239.48999023 170.82373047 C-239.8711346 167.56528984 -239.70843205 164.92065316 -239.1875 161.6875 C-239.10177734 160.64916016 -239.01605469 159.61082031 -238.92773438 158.54101562 C-238.70563001 156.00434995 -238.39790025 153.51402075 -238 151 C-235.38021043 152.24616248 -233.05760411 153.58266783 -230.7421875 155.328125 C-230.12609619 155.79081787 -229.51000488 156.25351074 -228.87524414 156.73022461 C-228.21516357 157.23175049 -227.55508301 157.73327637 -226.875 158.25 C-226.17560303 158.77795166 -225.47620605 159.30590332 -224.75561523 159.84985352 C-218.72714307 164.4150978 -212.75644616 169.0539543 -206.7956543 173.70703125 C-199.54296765 179.36766473 -192.23346628 184.95222846 -184.91943359 190.53320312 C-182.107635 192.6819294 -179.30365845 194.84066058 -176.5 197 C-171.5079922 200.84384601 -166.50603093 204.67443778 -161.5 208.5 C-156.9431 211.98257077 -152.3865622 215.46553953 -147.84155273 218.96362305 C-146.27797899 220.16598463 -144.7112817 221.36428079 -143.14453125 222.5625 C-140.8894607 224.31052984 -138.66306804 226.07651043 -136.44921875 227.875 C-135.86172852 228.34526611 -135.27423828 228.81553223 -134.66894531 229.30004883 C-133.5414102 230.2035714 -132.42175964 231.11705132 -131.31152344 232.04174805 C-128.37397549 234.43310135 -128.37397549 234.43310135 -124.73828125 234.8984375 C-122.43673084 233.70887212 -121.38864759 232.15240377 -120 230 C-121.4954708 226.40278644 -123.52706308 224.36902779 -126.4375 221.8125 C-127.33726562 221.02101563 -128.23703125 220.22953125 -129.1640625 219.4140625 C-131.84842245 217.12902883 -134.56853269 214.90037687 -137.3125 212.6875 C-142.12665588 208.79679292 -146.64924334 204.66999534 -151.16333008 200.44213867 C-154.51064243 197.32475274 -157.92986788 194.36440833 -161.5 191.5 C-166.26188842 187.6794151 -170.71435594 183.60932197 -175.16625977 179.43920898 C-178.491548 176.34219916 -181.88719939 173.40378316 -185.4375 170.5625 C-190.45841948 166.53553256 -195.12421817 162.20785297 -199.80615234 157.79931641 C-204.11615073 153.76304362 -208.5920496 150.0144433 -213.203125 146.32421875 C-217.07354598 143.10787729 -220.7446651 139.69398596 -224.41040039 136.24780273 C-224.92078857 135.76899658 -225.43117676 135.29019043 -225.95703125 134.796875 C-226.45460938 134.31371826 -226.9521875 133.83056152 -227.46484375 133.33276367 C-229.19138485 131.74462181 -229.19138485 131.74462181 -232.36328125 130.09765625 C-234.79720339 128.09587378 -235.00205533 126.98602292 -235.47094727 123.79736328 C-235.59210277 119.74289823 -235.52350545 115.73870991 -235.375 111.6875 C-235.34488282 110.26502997 -235.31751005 108.84249902 -235.29296875 107.41992188 C-235.22706199 103.94534317 -235.12364151 100.47305835 -235 97 C-231.0357481 96.75028939 -227.07460874 96.57025836 -223.10424805 96.45068359 C-221.10106469 96.37642952 -219.10006666 96.24926499 -217.09960938 96.12109375 C-207.50436366 95.8793999 -207.50436366 95.8793999 -203.19970703 99.0859375 C-200.90990925 101.61624642 -198.93050763 104.18898131 -197 107 C-195.81664062 108.43085938 -195.81664062 108.43085938 -194.609375 109.890625 C-193.99578125 110.66921875 -193.3821875 111.4478125 -192.75 112.25 C-188.6511278 117.32342922 -184.26760012 122.06069181 -179.80004883 126.80541992 C-175.75774597 131.12173717 -172.00426509 135.60476234 -168.30859375 140.22265625 C-165.64720542 143.42442799 -162.84537754 146.46234918 -160 149.5 C-155.56165094 154.23864143 -151.40857547 159.12119579 -147.34375 164.1875 C-144.18196559 167.98164129 -140.81454636 171.56283765 -137.43920898 175.16625977 C-134.34219916 178.491548 -131.40378316 181.88719939 -128.5625 185.4375 C-123.9917855 191.13216068 -119.03623747 196.41762158 -114.04296875 201.73828125 C-110.60051913 205.4104402 -107.26878215 209.17255326 -104 213 C-100.73539027 211.19587357 -99.11070205 210.16605307 -97 207 C-97.78761719 205.97003906 -98.57523438 204.94007813 -99.38671875 203.87890625 C-99.90645264 203.19924805 -100.42618652 202.51958984 -100.96166992 201.81933594 C-102.12717318 200.29522898 -103.29270113 198.7711409 -104.45825195 197.24707031 C-107.44148421 193.34613556 -110.42437942 189.44494449 -113.40625 185.54296875 C-119.06089738 178.14430995 -124.72499548 170.75325263 -130.40625 163.375 C-133.44607633 159.42322578 -136.47273515 155.46139982 -139.5 151.5 C-144.98559397 144.32216937 -150.48751244 137.15719696 -156 130 C-158.86258869 126.28332747 -161.72365303 122.56550062 -164.58154297 118.84521484 C-165.60067696 117.5194636 -166.62063121 116.19434276 -167.64111328 114.86962891 C-169.38759265 112.60200285 -171.13146917 110.33239361 -172.875 108.0625 C-173.42260986 107.35254883 -173.97021973 106.64259766 -174.53442383 105.91113281 C-175.05673584 105.23018555 -175.57904785 104.54923828 -176.1171875 103.84765625 C-176.57722168 103.24961182 -177.03725586 102.65156738 -177.51123047 102.03540039 C-179.42874798 99.41382881 -181.21210068 96.71111162 -183 94 C-163.60936654 91.08308054 -163.60936654 91.08308054 -156.70953369 95.44946289 C-151.60109645 100.37722825 -148.28858315 106.63070801 -144.8125 112.75 C-143.62296648 114.69120484 -142.42445467 116.62693337 -141.2175293 118.55737305 C-138.70168098 122.60137825 -136.23100999 126.66829974 -133.7890625 130.75732422 C-128.21975419 140.01979005 -122.19387279 148.98076513 -116.20004272 157.97155762 C-114.3601998 160.74070699 -112.53524131 163.5189974 -110.71606445 166.30175781 C-104.98937317 175.05616267 -99.18093634 183.70868292 -93.01245117 192.15893555 C-91.20422546 194.71168608 -89.56598605 197.29369958 -88 200 C-84.55870533 199.45799609 -81.93744971 197.88706068 -78.97680664 196.11791992 C-72.22523968 192.08632473 -65.34692929 188.64982509 -58.0625 185.6875 C-56.94004883 185.21848267 -56.94004883 185.21848267 -55.79492188 184.73999023 C-50.35515655 182.59485149 -44.844052 181.19047434 -39.15795898 179.88598633 C-38.37182976 179.70343544 -37.58570053 179.52088455 -36.77574921 179.33280182 C-34.85103845 178.88620531 -32.92559222 178.44278048 -31 178 C-31.11761405 177.41322857 -31.2352281 176.82645714 -31.35640621 176.22190475 C-34.22687176 161.8988662 -37.0898561 147.57434617 -39.94467068 133.24818039 C-41.32545364 126.3199964 -42.70870068 119.39232198 -44.09790039 112.46582031 C-45.43969589 105.77563757 -46.77442273 99.08407509 -48.1049366 92.39163971 C-48.61252199 89.84445157 -49.12243504 87.29772607 -49.63476372 84.75148773 C-50.35447903 81.17245354 -51.06573938 77.5918318 -51.77514648 74.01074219 C-51.98661819 72.96919983 -52.1980899 71.92765747 -52.41596985 70.85455322 C-53.41504234 65.76673283 -54.24864423 60.68055083 -54.83363342 55.52764893 C-54.94248902 54.57394032 -55.05134462 53.6202317 -55.16349888 52.63762283 C-54.90618427 48.48653078 -52.77408837 46.39077118 -49.85351562 43.61328125 C-48.78133789 42.69095703 -48.78133789 42.69095703 -47.6875 41.75 C-46.98431641 41.08871094 -46.28113281 40.42742187 -45.55664062 39.74609375 C-40.41258249 35 -40.41258249 35 -38 35 C-37.86948242 36.09538086 -37.73896484 37.19076172 -37.60449219 38.31933594 C-34.51042549 64.44096854 -34.51042549 64.44096854 -30.9375 90.5 C-29.37018361 101.1335664 -28.020763 111.7836831 -26.75274658 122.45602417 C-25.10214821 136.34300671 -23.26906879 150.20087088 -21.39306641 164.05908203 C-20.90597847 167.70346793 -20.44660727 171.3504517 -20 175 C-16.7 175.33 -13.4 175.66 -10 176 C-10.14695312 174.94425781 -10.29390625 173.88851562 -10.4453125 172.80078125 C-11.17268633 166.94733608 -11.50934484 161.07271399 -11.875 155.1875 C-11.95961865 153.85668321 -12.04433943 152.52587291 -12.12915039 151.19506836 C-12.68030044 142.47293579 -13.19098689 133.74861192 -13.69140625 125.0234375 C-13.9397858 120.70310663 -14.18856523 116.38279891 -14.4375 112.0625 C-14.50030151 110.96932465 -14.56310303 109.87614929 -14.62780762 108.74984741 C-15.43144559 94.82178718 -16.34043631 80.90933053 -17.43353271 67.00100708 C-17.62291193 64.52727499 -17.79858513 62.05297008 -17.96923828 59.57788086 C-18.07935522 57.99720534 -18.18986131 56.41655687 -18.30078125 54.8359375 C-18.35383423 54.07908157 -18.40688721 53.32222565 -18.46154785 52.54243469 C-18.8192045 47.71587926 -19.38049398 42.95823924 -20.04296875 38.1640625 C-21.95061529 22.27380694 -21.95061529 22.27380694 -18.29980469 16.14648438 C-13.37608462 9.92959935 -7.17785091 3.58892545 0 0 Z " fill="#FCD117" transform="translate(368,311)"/>
<path d="M0 0 C2 1 2 1 2.92385864 3.15684509 C3.23918549 4.10789627 3.55451233 5.05894745 3.87939453 6.03881836 C4.239617 7.11340805 4.59983948 8.18799774 4.97097778 9.29515076 C5.35438324 10.46489944 5.7377887 11.63464813 6.1328125 12.83984375 C6.52951141 14.03227188 6.92621033 15.22470001 7.33493042 16.45326233 C8.17393482 18.98003764 9.0100568 21.50755027 9.84130859 24.03686523 C10.90797339 27.28211761 11.98376149 30.52424867 13.06289864 33.76537228 C14.08978209 36.85151233 15.1112933 39.93942469 16.1328125 43.02734375 C16.52026642 44.19506821 16.90772034 45.36279266 17.30691528 46.56590271 C17.66083344 47.64364456 18.01475159 48.72138641 18.37939453 49.83178711 C18.69313019 50.78363388 19.00686584 51.73548065 19.33010864 52.71617126 C20 55 20 55 20 57 C21.10045654 56.98259766 21.10045654 56.98259766 22.22314453 56.96484375 C34.12516343 56.86576347 45.98856364 57.45362363 57.875 58 C60.02733097 58.09663924 62.17967466 58.19299557 64.33203125 58.2890625 C69.55483856 58.52278237 74.77747835 58.75998607 80 59 C77.16649098 61.90557337 74.38721809 64.61453164 71.09375 66.98828125 C70.35954834 67.52227539 69.62534668 68.05626953 68.86889648 68.60644531 C68.08716064 69.16944336 67.3054248 69.73244141 66.5 70.3125 C59.08500545 75.71346418 51.73464277 81.19072275 44.4375 86.75 C43.52742187 87.44134033 42.61734375 88.13268066 41.6796875 88.8449707 C40.83535156 89.48909912 39.99101563 90.13322754 39.12109375 90.796875 C38.3727124 91.36760742 37.62433105 91.93833984 36.85327148 92.52636719 C34.91006521 94.01435085 34.91006521 94.01435085 33 96 C33.74482996 98.55670068 34.48985283 101.11334493 35.23510742 103.66992188 C35.87494004 105.86513328 36.51442045 108.06044738 37.15356445 110.25585938 C38.56887314 115.1132244 39.98570922 119.96980298 41.4375 124.81640625 C44.22994223 134.15077711 46.71798738 143.52773532 49 153 C46.09148134 151.62238792 43.49953356 150.04802065 40.8671875 148.19921875 C40.06941895 147.64024902 39.27165039 147.0812793 38.44970703 146.50537109 C37.60005371 145.90547363 36.75040039 145.30557617 35.875 144.6875 C34.99569824 144.06955566 34.11639648 143.45161133 33.21044922 142.81494141 C26.40453634 138.02044824 19.6430647 133.16553575 12.91357422 128.2644043 C11.56070887 127.28060264 10.20463062 126.30119736 8.84472656 125.32714844 C7.65359272 124.47021308 6.47232841 123.59930983 5.30371094 122.71191406 C2.40558109 120.55629201 2.40558109 120.55629201 -1.0703125 120.0546875 C-3.49389438 121.24194826 -5.64593437 122.59706481 -7.875 124.125 C-8.92429687 124.83914063 -9.97359375 125.55328125 -11.0546875 126.2890625 C-11.66280273 126.70704102 -12.27091797 127.12501953 -12.89746094 127.55566406 C-15.3469176 129.23831451 -17.8021404 130.91237116 -20.2578125 132.5859375 C-23.13677796 134.54803655 -26.01544929 136.51055032 -28.89257812 138.4753418 C-35.56452201 143.03040342 -42.25848766 147.54832624 -49 152 C-50.18249844 148.45250467 -49.74619224 147.44267245 -48.62890625 143.94946289 C-48.305271 142.92152115 -47.98163574 141.89357941 -47.64819336 140.83448792 C-47.28991455 139.72508347 -46.93163574 138.61567902 -46.5625 137.47265625 C-45.82549831 135.13086646 -45.08851986 132.78906936 -44.3515625 130.44726562 C-43.1756437 126.7485336 -41.99629942 123.05091395 -40.81542969 119.35375977 C-39.68104054 115.7918253 -38.55885814 112.22621043 -37.4375 108.66015625 C-37.07922119 107.55277603 -36.72094238 106.44539581 -36.35180664 105.30445862 C-36.02817139 104.27336472 -35.70453613 103.24227081 -35.37109375 102.17993164 C-35.08161865 101.27408829 -34.79214355 100.36824493 -34.49389648 99.43495178 C-33.96876857 96.8460264 -34.06696699 95.44935192 -35 93 C-36.37995512 91.50506469 -36.37995512 91.50506469 -38.18359375 90.2578125 C-38.85511475 89.75588379 -39.52663574 89.25395508 -40.21850586 88.73681641 C-40.95077393 88.20491699 -41.68304199 87.67301758 -42.4375 87.125 C-43.99034454 85.9697725 -45.5424016 84.81348588 -47.09375 83.65625 C-47.90070312 83.058125 -48.70765625 82.46 -49.5390625 81.84375 C-53.55523083 78.83481119 -57.49178034 75.72535725 -61.4375 72.625 C-66.98067115 68.27995138 -72.54585534 64.08789247 -78.4453125 60.234375 C-78.95835937 59.82703125 -79.47140625 59.4196875 -80 59 C-80 58.34 -80 57.68 -80 57 C-60.2 56.67 -40.4 56.34 -20 56 C-16.9990625 47.4303125 -16.9990625 47.4303125 -13.9375 38.6875 C-9.39973551 25.75091056 -4.82736904 12.83202462 0 0 Z " fill="#FCD118" transform="translate(836,562)"/>
<path d="M0 0 C0.66 0 1.32 0 2 0 C4.57201936 7.47185866 7.1345359 14.94692645 9.69042969 22.42431641 C10.56059946 24.96860831 11.4337942 27.5118318 12.30957031 30.05419922 C13.56628192 33.70607208 14.81515099 37.36054529 16.0625 41.015625 C16.45622803 42.15429016 16.84995605 43.29295532 17.25561523 44.46612549 C17.61598877 45.52692322 17.9763623 46.58772095 18.34765625 47.68066406 C18.66742432 48.61332092 18.98719238 49.54597778 19.31665039 50.50689697 C20 53 20 53 20 57 C20.81750732 56.99476318 21.63501465 56.98952637 22.47729492 56.98413086 C42.01464127 56.87656585 61.47794222 57.16814441 81 58 C76.89779824 62.38707688 72.36541655 65.80897888 67.5 69.3125 C59.13271853 75.39967046 50.88254326 81.62604455 42.6796875 87.93286133 C41.83535156 88.5802124 40.99101562 89.22756348 40.12109375 89.89453125 C39.3727124 90.47050049 38.62433105 91.04646973 37.85327148 91.63989258 C36 93 36 93 34 94 C34.68775932 99.92282147 36.0945287 105.51005398 37.6875 111.25 C37.95079102 112.2100293 38.21408203 113.17005859 38.48535156 114.15917969 C40.48716307 121.37092528 42.70910241 128.49681417 45.0168457 135.61547852 C46.75259966 141.03189553 48.07847702 146.37870985 49 152 C44.15268089 150.43365788 40.65053691 147.6461003 36.6875 144.5625 C30.47381678 139.81030961 24.16233732 135.26543879 17.67529297 130.89404297 C14.6216354 128.83018641 11.623097 126.74553045 8.7265625 124.46484375 C7.76492187 123.71332031 6.80328125 122.96179688 5.8125 122.1875 C4.58466797 121.18783203 4.58466797 121.18783203 3.33203125 120.16796875 C1.08634849 118.74980515 1.08634849 118.74980515 -1.25 119.41796875 C-5.28730227 121.74056452 -9.03313484 124.40720824 -12.8125 127.125 C-20.83208047 132.81867581 -28.93783447 138.36342829 -37.125 143.8125 C-38.17405518 144.51197754 -39.22311035 145.21145508 -40.30395508 145.93212891 C-47.72610675 150.86305338 -47.72610675 150.86305338 -50 152 C-48.56615854 145.05933074 -46.66224862 138.37497194 -44.5234375 131.62109375 C-44.02827133 130.04208031 -44.02827133 130.04208031 -43.52310181 128.4311676 C-42.47723219 125.09883401 -41.4262025 121.76815467 -40.375 118.4375 C-39.66111562 116.16612331 -38.9475705 113.89463996 -38.234375 111.62304688 C-36.49350516 106.08079166 -34.74840608 100.53988209 -33 95 C-36.40416751 91.54877519 -39.81543876 88.48299586 -43.6875 85.5625 C-44.83515245 84.69208754 -45.98225568 83.82095062 -47.12890625 82.94921875 C-48.05533936 82.24611572 -48.05533936 82.24611572 -49.00048828 81.52880859 C-52.73269771 78.67519499 -56.42428896 75.76925976 -60.125 72.875 C-66.06872464 68.23132833 -72.05872292 63.69888732 -78.2265625 59.35546875 C-79.10441406 58.68451172 -79.10441406 58.68451172 -80 58 C-80 57.67 -80 57.34 -80 57 C-59.65767682 56.30649075 -39.35637735 55.83339656 -19 56 C-18.89204102 55.17435547 -18.78408203 54.34871094 -18.67285156 53.49804688 C-17.90614906 49.51208407 -16.63746113 45.82536305 -15.234375 42.03125 C-14.95909973 41.2738855 -14.68382446 40.516521 -14.40020752 39.73620605 C-13.52167322 37.32232876 -12.6360463 34.91112872 -11.75 32.5 C-11.17008518 30.91163632 -10.59065392 29.32309601 -10.01171875 27.734375 C-9.15880311 25.39438951 -8.30541175 23.05458795 -7.4498291 20.71557617 C-4.92920041 13.82357198 -2.45541961 6.91549196 0 0 Z " fill="#FCD119" transform="translate(111,39)"/>
<path d="M0 0 C0.66 0 1.32 0 2 0 C4.57201936 7.47185866 7.1345359 14.94692645 9.69042969 22.42431641 C10.56059946 24.96860831 11.4337942 27.5118318 12.30957031 30.05419922 C13.56628192 33.70607208 14.81515099 37.36054529 16.0625 41.015625 C16.45622803 42.15429016 16.84995605 43.29295532 17.25561523 44.46612549 C17.61598877 45.52692322 17.9763623 46.58772095 18.34765625 47.68066406 C18.66742432 48.61332092 18.98719238 49.54597778 19.31665039 50.50689697 C20 53 20 53 20 57 C21.5778125 56.98259766 21.5778125 56.98259766 23.1875 56.96484375 C42.46440014 56.83104898 61.73245822 57.47023066 81 58 C78.16649098 60.90557337 75.38721809 63.61453164 72.09375 65.98828125 C71.35954834 66.52235596 70.62534668 67.05643066 69.86889648 67.60668945 C69.08716064 68.16960693 68.3054248 68.73252441 67.5 69.3125 C59.13271853 75.39967046 50.88254326 81.62604455 42.6796875 87.93286133 C41.83535156 88.5802124 40.99101562 89.22756348 40.12109375 89.89453125 C39.3727124 90.47050049 38.62433105 91.04646973 37.85327148 91.63989258 C36 93 36 93 34 94 C34.65314816 99.66568053 36.00704318 104.91341934 37.625 110.375 C38.16342542 112.22636923 38.70115408 114.0779412 39.23828125 115.9296875 C39.52268066 116.90647461 39.80708008 117.88326172 40.10009766 118.88964844 C41.69968202 124.41832581 43.25694821 129.95880223 44.8125 135.5 C45.11430176 136.56782715 45.41610352 137.6356543 45.72705078 138.73583984 C46.00919434 139.7408252 46.29133789 140.74581055 46.58203125 141.78125 C46.83186768 142.66876953 47.0817041 143.55628906 47.33911133 144.47070312 C47.99152309 146.96755791 48.52024324 149.46483432 49 152 C44.15268089 150.43365788 40.65053691 147.6461003 36.6875 144.5625 C30.47381678 139.81030961 24.16233732 135.26543879 17.67529297 130.89404297 C14.6216354 128.83018641 11.623097 126.74553045 8.7265625 124.46484375 C7.76492187 123.71332031 6.80328125 122.96179687 5.8125 122.1875 C4.58466797 121.18783203 4.58466797 121.18783203 3.33203125 120.16796875 C1.08634849 118.74980515 1.08634849 118.74980515 -1.25 119.41796875 C-5.28730227 121.74056452 -9.03313484 124.40720824 -12.8125 127.125 C-20.83208047 132.81867581 -28.93783447 138.36342829 -37.125 143.8125 C-38.17405518 144.51197754 -39.22311035 145.21145508 -40.30395508 145.93212891 C-47.72610675 150.86305338 -47.72610675 150.86305338 -50 152 C-48.56615854 145.05933074 -46.66224862 138.37497194 -44.5234375 131.62109375 C-44.02827133 130.04208031 -44.02827133 130.04208031 -43.52310181 128.4311676 C-42.47723219 125.09883401 -41.4262025 121.76815467 -40.375 118.4375 C-39.66111562 116.16612331 -38.9475705 113.89463996 -38.234375 111.62304688 C-36.49350516 106.08079166 -34.74840608 100.53988209 -33 95 C-36.40416751 91.54877519 -39.81543876 88.48299586 -43.6875 85.5625 C-44.83515245 84.69208754 -45.98225568 83.82095062 -47.12890625 82.94921875 C-48.05533936 82.24611572 -48.05533936 82.24611572 -49.00048828 81.52880859 C-52.73269771 78.67519499 -56.42428896 75.76925976 -60.125 72.875 C-66.06872464 68.23132833 -72.05872292 63.69888732 -78.2265625 59.35546875 C-79.10441406 58.68451172 -79.10441406 58.68451172 -80 58 C-80 57.67 -80 57.34 -80 57 C-59.65634046 56.27755799 -39.3588565 55.84214175 -19 56 C-18.87142105 55.11871429 -18.7428421 54.23742859 -18.61036682 53.32943726 C-18.0529368 50.28876037 -17.28623168 47.62779917 -16.23413086 44.72900391 C-15.87383286 43.72841949 -15.51353485 42.72783508 -15.14231873 41.69692993 C-14.75375198 40.63420868 -14.36518524 39.57148743 -13.96484375 38.4765625 C-13.56672989 37.37524994 -13.16861603 36.27393738 -12.75843811 35.13925171 C-11.48961383 31.63273199 -10.21366078 28.12885549 -8.9375 24.625 C-8.07439797 22.24366054 -7.21176234 19.86215198 -6.34960938 17.48046875 C-4.23847493 11.65167502 -2.1214864 5.82503339 0 0 Z " fill="#FCD119" transform="translate(111,1096)"/>
<path d="M0 0 C0.66 0.33 1.32 0.66 2 1 C1.67 20.8 1.34 40.6 1 61 C0.67 61 0.34 61 0 61 C-0.01030746 60.3426738 -0.02061493 59.6853476 -0.03123474 59.00810242 C-0.13924871 52.17888335 -0.25385097 45.34979759 -0.37231445 38.52075195 C-0.41567967 35.97065006 -0.45735356 33.42051884 -0.49731445 30.87036133 C-0.55497839 27.20905711 -0.61868425 23.54790078 -0.68359375 19.88671875 C-0.70030624 18.7428923 -0.71701874 17.59906586 -0.73423767 16.420578 C-0.75418289 15.35970474 -0.77412811 14.29883148 -0.79467773 13.20581055 C-0.81022202 12.27093307 -0.8257663 11.3360556 -0.84178162 10.37284851 C-0.90972708 7.85013487 -0.90972708 7.85013487 -2 5 C-1.0625 2.3125 -1.0625 2.3125 0 0 Z " fill="#FCDB4A" transform="translate(836,562)"/>
<path d="M0 0 C0.66 0.33 1.32 0.66 2 1 C2 1.99 2 2.98 2 4 C-1.3 4.66 -4.6 5.32 -8 6 C-5.36435544 3.36435544 -3.27929831 1.68169144 0 0 Z " fill="#FCDA47" transform="translate(249,87)"/>
</svg>
