<svg width="65" height="52" viewBox="0 0 65 52" fill="none" xmlns="http://www.w3.org/2000/svg">
<path d="M26.7913 47.9927C17.5139 37.1929 9.40184 25.9001 2.45504 14.1144C1.46904 12.4564 0.976044 10.7983 0.976044 9.14023C0.976044 6.72035 1.80518 4.65897 3.46345 2.95609C5.12172 1.29802 7.02649 0.468992 9.17775 0.468992C11.6427 0.468992 13.7492 1.67893 15.4971 4.09881C19.0377 9.34188 24.4607 17.1169 31.7661 27.4238C35.486 22.2703 39.6092 17.3185 44.1358 12.5684C49.7829 6.5635 53.7493 3.56106 56.035 3.56106C58.2311 3.56106 60.1135 4.45731 61.6821 6.24982C63.2956 8.08713 64.1023 10.1709 64.1023 12.5012C64.1023 14.9211 63.1163 17.0945 61.1443 19.0214C50.8361 29.0594 43.7773 38.0443 39.9678 45.9762C38.2199 49.606 35.9117 51.4209 33.0434 51.4209C30.8473 51.4209 28.7632 50.2782 26.7913 47.9927Z" fill="white"/>
</svg>
