<svg width="88" height="89" viewBox="0 0 88 89" fill="none" xmlns="http://www.w3.org/2000/svg">
<g style="mix-blend-mode:hard-light">
<path d="M24.0113 41.6893C26.6987 37.2168 28.0423 34.9806 30.0336 33.6729C30.9287 33.0852 31.9054 32.6428 32.9274 32.3623C35.2012 31.7383 37.678 32.2443 42.6317 33.2562L52.3829 35.2481C59.4805 36.6979 63.0293 37.4228 64.5189 39.8904C64.8689 40.4701 65.1302 41.1025 65.2941 41.7665C65.992 44.5926 64.0668 47.7967 60.2163 54.205C57.5502 58.6421 56.2171 60.8607 54.1637 62.0396C53.6659 62.3254 53.1434 62.5621 52.6036 62.7462C50.3769 63.5057 47.9197 63.0038 43.0052 61.9999L31.4268 59.6347C25.1777 58.3582 22.0532 57.72 20.5581 55.7064C18.6424 53.1263 19.0044 50.0222 20.2665 47.9217C21.1188 46.5032 22.6891 43.8898 24.0113 41.6893Z" fill="url(#paint0_linear_1_696)"/>
<path fill-rule="evenodd" clip-rule="evenodd" d="M30.3495 31.1412C32.5019 27.559 34.2665 24.6222 35.7598 23.4391C37.0787 22.3942 38.6224 21.6916 40.2519 21.3945C42.097 21.058 44.0825 21.4555 48.0535 22.2505L49.4223 22.5246C54.0336 23.4477 56.3392 23.9093 57.6794 25.13C59.1298 26.451 59.9251 28.3652 59.8592 30.3764C59.7983 32.2348 57.8929 35.4058 55.3935 39.5656C53.4214 42.8477 52.4353 44.4888 51.1011 45.6128C49.6507 46.8348 47.9049 47.6294 46.0619 47.9065C44.3666 48.1614 42.5474 47.7972 38.909 47.0687C38.909 47.0687 32.655 45.7952 28.7436 45.0278C24.8321 44.2604 21.6924 45.5489 20.2344 47.9754L30.3495 31.1412Z" fill="white"/>
</g>
<defs>
<linearGradient id="paint0_linear_1_696" x1="54.2601" y1="61.5528" x2="34.1307" y2="26.6629" gradientUnits="userSpaceOnUse">
<stop stop-color="white"/>
<stop offset="1" stop-color="white" stop-opacity="0.12"/>
</linearGradient>
</defs>
</svg>
